<svg width="1000" height="251" viewBox="0 0 1000 251" fill="none" xmlns="http://www.w3.org/2000/svg">
<path fill-rule="evenodd" clip-rule="evenodd" d="M687.366 53.6183C693.192 51.2019 699.442 49.9719 705.749 50.0005H706.162C719.04 50.0783 735.185 54.9621 745.49 62.4785L745.344 63.1795L745.764 63.7407L730.574 91.306L729.809 91.1946L729.161 91.6119C723.301 87.2447 716.481 84.8389 711.658 84.799C709.568 84.8325 707.532 85.4685 705.795 86.6306L705.749 86.6224L705.742 86.6559C704.669 87.2991 703.77 88.194 703.122 89.2632C702.48 90.3244 702.103 91.5252 702.026 92.7631C702.035 95.293 703.168 97.7065 705.294 100.113C707.434 102.536 710.525 104.887 714.298 107.258C726.287 114.723 735.063 121.25 740.842 128.192C746.655 135.174 749.423 142.563 749.438 151.677C749.566 158.841 748.022 165.929 744.938 172.38C738.9 185.149 727.165 194.485 712.159 198.21C707.284 199.467 702.236 200.074 697.147 199.993H696.311L696.305 199.993C679.434 199.889 662.607 193.339 647.939 181.519L648.127 180.799L647.753 180.241L666.625 149.915L667.467 150.08L668.05 149.736C677.94 157.62 687.27 162.306 694.598 162.306H695.56C701.162 162.04 705.063 160.335 706.961 157.908C707.783 156.859 708.274 155.588 708.37 154.259C708.399 153.724 708.4 153.189 708.372 152.654L708.331 152.614C708.156 147.52 705.09 144.935 699.768 140.993C697.217 139.107 694.558 137.28 691.865 135.433L691.624 135.268L691.621 135.266L691.618 135.264C689.01 133.476 686.374 131.668 683.803 129.786C678.5 125.903 673.428 121.672 669.348 116.539L669.343 116.532C663.736 109.355 660.605 100.555 660.42 91.451L660.42 91.4315V91.3035L660.438 91.2852L660.369 91.2148C660.498 81.0203 664.609 71.28 671.823 64.0721C676.257 59.5886 681.541 56.0346 687.366 53.6183ZM717.116 154.85C717.12 154.795 717.124 154.74 717.127 154.684V153.639L710.912 153.54H710.31C710.308 153.817 710.3 154.094 710.285 154.371L710.284 154.387C710.162 156.1 709.53 157.737 708.472 159.089C706.075 162.153 701.494 163.948 695.627 164.222L695.582 164.223H694.598C687.108 164.223 678.085 159.813 668.813 152.76L670.539 162.883C672.168 164.104 675.538 166.041 679.746 167.726C684.2 169.51 689.496 170.973 694.545 171.035L694.714 171.052C695.072 171.12 695.44 171.12 695.798 171.052L695.921 171.036C704.544 170.521 709.582 168.995 712.584 166.436C715.538 163.918 716.7 160.236 717.116 154.85ZM661.41 178.542L669.906 164.895C671.829 166.235 675.118 168.048 679.046 169.621C683.601 171.445 689.111 172.986 694.459 173.065C695.003 173.154 695.558 173.152 696.102 173.062C706.337 172.442 712.248 170.397 715.534 166.32L715.542 166.31C717.802 163.427 718.692 159.707 719.042 155.159L719.045 155.086V154.743C719.402 148.805 717.987 144.501 715.541 141.019C713.094 137.536 709.645 134.93 706.151 132.347C703.509 130.388 700.825 128.527 698.188 126.708L697.473 126.216C695.078 124.566 692.73 122.948 690.477 121.308C685.52 117.701 681.083 114.032 677.732 109.805C673.613 104.509 671.297 98.0348 671.122 91.3296V91.3035L671.121 91.2662L671.147 91.2406C671.214 86.5838 672.428 82.0598 674.631 78.047C675.578 76.3499 676.701 74.732 677.98 73.2151C678.451 72.6681 678.943 72.1375 679.458 71.6248L679.463 71.6196C682.897 68.145 686.99 65.3902 691.503 63.5169C696.015 61.6435 700.857 60.6892 705.743 60.7097L705.743 60.6864L705.747 60.6867V60.7097H706.092C711.476 60.7097 717.669 61.7805 722.82 63.0722C725.39 63.7168 727.684 64.4123 729.469 65.048C730.667 65.4746 731.587 65.8578 732.203 66.1635L726.365 76.7584C726.284 76.7371 726.196 76.7135 726.1 76.6875C725.943 76.6453 725.769 76.5981 725.581 76.5468L725.572 76.5446L725.571 76.5441L725.569 76.5437C724.774 76.3274 723.714 76.0391 722.495 75.7389C719.475 74.9953 715.391 74.1548 711.69 74.1153H711.68C709.841 74.1153 708.003 74.374 706.223 74.8634C703.948 75.4813 701.779 76.4737 699.808 77.811C699.748 77.8347 699.689 77.8648 699.633 77.9016C697.159 79.5238 695.113 81.7196 693.671 84.3021C693.478 84.6478 693.297 84.999 693.127 85.3551C692.03 87.5783 691.381 90.0582 691.324 92.7273L691.324 92.7665C691.418 97.5018 693.007 101.511 695.505 104.992C698.514 109.199 702.857 112.635 707.523 115.645C707.88 115.877 708.238 116.105 708.598 116.331C719.738 123.354 727.305 129.016 732.077 134.532C736.809 140.002 738.785 145.317 738.736 151.717V151.725C738.736 164.995 732.359 176.104 721.714 182.722C719.377 184.133 716.928 185.328 714.398 186.299C709.27 188.213 703.484 189.267 697.19 189.296L697.188 189.296L697.187 189.296H696.39C682.566 189.21 668.515 183.923 661.41 178.542ZM717.095 151.623H710.929L710.235 151.611C709.978 149.138 709.081 147.153 707.675 145.369C706.011 143.26 703.641 141.447 700.908 139.427L700.896 139.443C698.318 137.537 695.635 135.694 692.95 133.853L692.718 133.694C690.102 131.899 687.485 130.105 684.937 128.239C679.689 124.397 674.776 120.285 670.852 115.349C665.676 108.723 662.712 100.648 662.364 92.262H669.235C669.576 99.094 672.012 105.663 676.221 111.074L676.226 111.08C679.741 115.523 684.349 119.316 689.349 122.954C691.608 124.597 693.959 126.219 696.334 127.855L697.099 128.383C699.736 130.202 702.396 132.048 705.009 133.989L705.058 133.924L705.068 133.931L705.02 133.997C708.288 136.354 711.271 138.61 713.469 141.48C715.492 144.121 716.867 147.308 717.095 151.623ZM742.579 62.795L733.68 64.7849L706.128 58.7928L705.818 58.7698L705.744 58.7671C693.601 58.8065 682.782 64.2669 676.127 72.4389C675.201 73.5605 674.362 74.7432 673.613 75.9764C670.961 80.2914 669.387 85.1594 669.218 90.2685H662.311C662.674 80.9272 666.548 72.0513 673.181 65.4259L673.185 65.4217C677.44 61.1186 682.511 57.7077 688.102 55.3888C693.692 53.0699 699.69 51.8897 705.743 51.9174L705.747 51.9174H706.153C717.946 51.9893 732.604 56.2348 742.579 62.795ZM725.575 78.5386C725.754 78.5867 725.922 78.6313 726.072 78.6697L726.193 79.3761C726.216 79.5109 726.267 79.6344 726.337 79.7418L728.277 88.6588C722.654 84.989 716.41 82.9179 711.662 82.882L711.64 82.8821C709.486 82.9145 707.381 83.4906 705.517 84.55L701.51 78.9933C702.517 78.365 703.584 77.8264 704.692 77.3876C706.899 76.5189 709.257 76.055 711.654 76.0323C715.123 76.0707 719.026 76.8653 722.01 77.6002C723.205 77.8944 724.238 78.1753 725.033 78.3915C725.228 78.4446 725.41 78.494 725.575 78.5386ZM694.635 86.6688C695.812 84.0799 697.664 81.8408 699.927 80.094L703.893 85.5945C702.93 86.3245 702.111 87.2316 701.482 88.2703C700.672 89.6063 700.201 91.1195 700.11 92.6787L700.108 92.7349C700.108 95.8943 701.531 98.7497 703.856 101.382C706.175 104.007 709.445 106.473 713.279 108.882L713.282 108.884C725.242 116.331 733.796 122.725 739.368 129.418C744.905 136.069 747.507 143.029 747.52 151.688L747.523 151.876C747.524 151.947 747.524 152.019 747.525 152.09L747.507 152.09C747.413 167.501 740.292 180.488 728.653 188.688L724.666 183.11C729.565 179.691 733.578 175.148 736.367 169.856C739.309 164.274 740.792 158.039 740.679 151.731C740.71 144.836 738.544 139.069 733.54 133.273C728.573 127.52 720.806 121.732 709.645 114.722L709.644 114.721C709.28 114.494 708.919 114.265 708.562 114.034C703.975 111.061 699.883 107.793 697.083 103.901C694.776 100.679 693.357 97.0284 693.268 92.7645C693.33 90.659 693.795 88.5901 694.635 86.6688ZM715.626 187.878C718.04 186.941 720.314 185.818 722.432 184.527C722.637 184.405 722.84 184.282 723.042 184.158L727.038 189.748C722.795 192.409 718.226 194.459 713.468 195.86C708.423 197.298 702.959 198.068 697.179 198.076L697.17 198.076H696.314C680.579 197.978 664.803 192.102 650.831 181.356L659.789 179.834C667.14 185.552 681.813 191.137 696.302 191.277H697.109C703.475 191.375 709.766 190.209 715.626 187.878ZM668.651 163.231L659.512 177.923L650.505 179.447L666.919 153.073L668.651 163.231ZM727.957 77.855L734.124 66.6507L743.061 64.6724L730.128 88.1417L728.183 79.1925C728.182 79.1786 728.18 79.1646 728.178 79.1506L728.176 79.1331L728.173 79.1166L727.957 77.855Z" fill="black"/>
<path fill-rule="evenodd" clip-rule="evenodd" d="M116.073 176.086C118.319 179.491 120.982 182.601 124.001 185.344L124.002 185.391C134.286 194.769 148.519 199.788 165.181 199.788C177.39 199.788 188.184 197.125 197.185 191.995C197.367 191.892 197.565 191.783 197.77 191.671C198.146 191.463 198.546 191.243 198.909 191.024L198.919 191.018C203.838 187.96 208.198 184.083 211.808 179.555L211.816 179.545C220.828 167.911 223.371 156.648 223.384 130V53.5276L222.705 53.2466L222.425 52.5691H184.385L184.091 53.279L183.491 53.5276V138.23C183.491 138.621 183.492 139.013 183.493 139.405C183.503 143.395 183.514 147.408 182.425 151.044L182.356 151.24L182.343 151.28C182.256 151.567 182.172 151.829 182.078 152.087L182.074 152.099C180.959 155.288 178.938 158.082 176.258 160.14L176.253 160.171L176.198 160.163C173.057 162.545 169.218 163.824 165.275 163.801L165.271 163.801C160.533 163.794 155.981 161.962 152.558 158.687H152.376C150.768 157.127 149.485 155.263 148.602 153.203C147.124 149.407 146.947 146.445 146.947 135.674V53.4764L146.244 53.1852L145.988 52.5691H107.949L107.658 53.2723L107.041 53.5276V129.99C106.886 137.59 107.17 145.193 107.889 152.761L107.892 152.786C108.899 161.044 111.685 168.984 116.058 176.062L116.073 176.086ZM108.959 55.8924V130L108.959 130.019C108.805 137.545 109.085 145.073 109.797 152.567C110.772 160.54 113.462 168.208 117.682 175.043C119.677 178.065 122.014 180.845 124.647 183.329L129.36 178.618C127.097 176.478 125.091 174.083 123.362 171.447C121.693 168.939 120.437 165.497 119.384 162.011C118.854 160.258 118.37 158.469 117.908 156.756L117.809 156.386C117.383 154.802 116.977 153.292 116.569 151.922L116.538 151.78C116.292 150.014 116.193 147.203 116.109 143.568C116.086 142.606 116.065 141.583 116.043 140.501C115.979 137.468 115.907 133.975 115.775 130.07L115.774 130.038V62.7042L108.959 55.8924ZM145.51 164.163L150.436 159.449C148.923 157.841 147.702 155.977 146.832 153.942L147.714 153.565L146.821 153.913C145.184 149.716 145.029 146.384 145.029 135.674V55.8418L138.163 62.7043V135.776C138.163 147.113 138.324 150.948 140.419 156.449C141.659 159.297 143.383 161.906 145.51 164.163ZM165.27 172.568C158.477 172.566 151.947 170.008 146.968 165.426L151.912 160.694C155.603 163.918 160.344 165.71 165.266 165.718C169.302 165.741 173.24 164.532 176.558 162.265L180.555 167.826C176.076 170.933 170.741 172.593 165.274 172.568L165.27 172.568ZM143.622 54.4861H110.315L117.181 61.3486H136.755L143.622 54.4861ZM165.181 197.871C149.327 197.871 135.877 193.224 126.071 184.667L130.813 179.927C139.319 187.225 151.082 191.2 165.181 191.2L165.246 191.198C172.028 190.733 179.74 189.249 186.846 186.528C188.294 185.974 189.719 185.368 191.109 184.706L195.324 190.837C186.837 195.448 176.695 197.871 165.181 197.871ZM197.911 189.387C197.612 189.567 197.316 189.732 197.008 189.901L192.842 183.842C197.565 181.377 201.781 178.237 204.903 174.329L204.909 174.321C212.302 164.868 214.598 155.296 214.6 130.069L214.6 62.7041L221.466 55.8415V130C221.453 156.534 218.909 167.254 210.304 178.366C206.832 182.719 202.641 186.446 197.911 189.387ZM191.541 182.145C191.346 182.236 191.139 182.333 190.899 182.452C182.808 186.258 174.073 188.51 165.15 189.092C151.134 189.086 139.682 185.019 131.551 177.802L131.549 177.755C129.047 175.537 126.85 172.997 125.015 170.202L124.891 170.283L124.889 170.28L125.012 170.198C123.51 167.934 122.318 164.724 121.271 161.261C120.751 159.539 120.273 157.778 119.811 156.064L119.709 155.683L119.708 155.681C119.292 154.134 118.887 152.629 118.479 151.254C118.258 149.614 118.161 146.949 118.077 143.332C118.055 142.377 118.034 141.358 118.011 140.28L118.011 140.278C117.948 137.247 117.875 133.741 117.743 129.83V63.2655H136.232V135.776C136.232 147.095 136.377 151.265 138.622 157.152L138.639 157.192C140.881 162.361 144.588 166.761 149.303 169.849C154.015 172.937 159.528 174.579 165.163 174.574C171.079 174.638 176.864 172.839 181.7 169.432C183.745 167.992 185.576 166.295 187.155 164.393C189.314 161.814 191.004 158.854 192.127 155.647C192.23 155.378 192.327 155.111 192.418 154.856L192.42 154.85C192.464 154.728 192.507 154.61 192.549 154.496L192.583 154.303L192.657 154.184C192.786 153.809 192.919 153.414 193.039 153.014C193.478 151.595 193.813 150.145 194.041 148.677L194.043 148.646L194.045 148.646C194.132 147.934 194.203 147.221 194.259 146.506C194.292 146.104 194.319 145.687 194.34 145.254C194.405 144.002 194.422 142.747 194.39 141.493C194.38 140.874 194.361 140.225 194.333 139.543V137.987C194.333 137.348 194.278 136.696 194.224 136.063C194.214 135.937 194.203 135.81 194.193 135.686V63.3141L212.682 63.2679V130.067C212.668 155.052 210.355 164.048 203.407 172.937C200.355 176.59 196.594 179.587 192.351 181.746L192.33 181.757C192.058 181.904 191.813 182.018 191.544 182.143L191.543 182.144L191.541 182.145ZM192.572 154.321C192.565 154.339 192.557 154.358 192.548 154.377L192.564 154.334L192.572 154.321ZM192.591 154.258L192.592 154.254L192.592 154.252L192.591 154.258ZM185.409 55.9058L192.198 62.6917V135.776L192.201 135.845C192.298 137.202 192.369 138.442 192.415 139.583V140.095H192.435L192.437 140.147L192.417 140.148C192.442 140.61 192.461 141.072 192.473 141.533C192.496 142.881 192.478 144.074 192.425 145.149C192.404 145.552 192.378 145.955 192.347 146.358C192.305 146.868 192.255 147.351 192.196 147.811C191.842 150.583 191.181 152.579 190.302 154.944L190.294 154.965C189.257 157.972 187.689 160.746 185.681 163.166C184.622 164.431 183.441 165.597 182.152 166.647L178.149 161.077C180.765 158.86 182.746 155.982 183.882 152.737C183.99 152.441 184.083 152.15 184.172 151.858L184.242 151.66L184.256 151.617C185.438 147.686 185.424 143.375 185.411 139.429L185.411 139.426C185.41 139.023 185.409 138.624 185.409 138.23V55.9058ZM186.765 54.4861L193.631 61.3486H213.243L220.109 54.4861H186.765Z" fill="black"/>
<path fill-rule="evenodd" clip-rule="evenodd" d="M287.626 52.8281L328.641 91.2266V53.5276L329.319 53.2468L329.6 52.5691H365.389L365.669 53.2468L366.348 53.5276V197.002L365.67 197.283L365.389 197.961H329.6L329.319 197.283L328.641 197.002V141.392L280.513 94.1628V197.002L279.835 197.283L279.554 197.961H243.983L243.702 197.283L243.024 197.002V53.5276L243.702 53.2468L243.983 52.5691H286.97L287.21 52.9215L287.626 52.8281ZM330.559 93.2389V55.8415L337.424 62.7037V109.061L330.559 93.2389ZM338.781 61.3486H356.207L363.073 54.4861H331.915L338.781 61.3486ZM337.424 138.751V187.826L330.559 194.688V141.628L337.424 138.751ZM336.682 136.983L273.498 74.9792L280.364 91.33L329.817 139.86L336.682 136.983ZM337.729 114.379L339.342 113.68L339.343 63.2655L355.645 63.2655V187.264L339.343 187.264L339.342 137.309L339.055 136.626L271.441 70.2748L269.811 70.9588V187.264L253.726 187.264V63.2655L283.126 63.2655L337.728 114.38L337.729 114.379ZM328.799 94.0015L335.664 109.821L284.636 62.0528L287.345 55.1913L328.799 94.0015ZM282.853 61.3486L285.561 54.4861H246.298L253.164 61.3486H282.853ZM251.807 62.7036L244.942 55.8415V194.688L251.807 187.826V62.7036ZM253.164 189.181L246.298 196.044H277.239L270.373 189.181H253.164ZM338.781 189.181L331.915 196.044H363.073L356.207 189.181H338.781ZM278.595 194.688L271.729 187.826V75.7193L278.595 92.0716V194.688ZM364.43 55.8415V194.688L357.564 187.826V62.7041L364.43 55.8415Z" fill="black"/>
<path fill-rule="evenodd" clip-rule="evenodd" d="M513.709 53.2469L513.428 52.5691H477.627L477.345 53.2475L476.668 53.5277V105.62L449.815 156.005L423.719 105.778V53.5276L423.042 53.247L422.761 52.5691H386.959L386.678 53.2468L386 53.5276V117.259L386.242 117.446L386.122 117.727L430.913 197.764L431.469 197.771L431.744 198.255L467.738 198.434L468.018 197.951L468.576 197.949L514.262 117.733L514.142 117.447L514.387 117.259V53.5276L513.709 53.2469ZM450.681 173.035L484.974 108.678L478.121 106.97L450.761 158.306L450.681 173.035ZM485.439 62.7037V106.818L478.586 105.111V55.844L485.439 62.7037ZM504.247 61.3486H486.796L479.94 54.4861H511.113L504.247 61.3486ZM505.603 114.195V62.7041L512.469 55.8415V116.013L505.603 114.195ZM463.76 188.679L505.113 116.048L511.979 117.866L467.736 195.549L463.76 188.679ZM437.461 189.504L462.099 189.638L466.075 196.508L433.423 196.346L437.461 189.504ZM435.809 188.53L431.772 195.372L388.402 117.873L395.268 116.085L435.809 188.53ZM413.579 61.3486H396.14L389.274 54.4861H420.445L413.579 61.3486ZM414.935 62.7038V106.939L421.801 105.26V55.8415L414.935 62.7038ZM422.257 107.123L415.39 108.801L448.763 173.028L448.843 158.295L422.257 107.123ZM450.547 177.364L487.244 108.495L487.357 108.045V63.2655H503.685V114.679L462.098 187.721L437.479 187.587L396.702 114.721V63.2655L413.017 63.2655V108.16L413.125 108.601L448.85 177.355L450.547 177.364ZM387.918 55.8415V116.018L394.784 114.23V62.7041L387.918 55.8415Z" fill="black"/>
<path fill-rule="evenodd" clip-rule="evenodd" d="M625.921 86.5881L626.6 86.3069V53.5276L625.922 53.2471L625.641 52.5691H541.558L541.278 53.2468L540.599 53.5276V104.99H532.441L532.16 105.668L531.483 105.949V138.498L532.161 138.779L532.441 139.457H540.599V196.504L541.277 196.785L541.558 197.462H629.886L630.167 196.785L630.845 196.504V163.942L630.167 163.661L629.886 162.984H578.217V139.457H635.959L636.239 138.779L636.919 138.498V106.422L636.24 106.141L635.96 105.463H578.217V87.2654H625.641L625.921 86.5881ZM623.323 85.3485L616.46 78.4987H570.802L577.655 85.3485H623.323ZM615.897 76.5818H568.486L567.527 77.5401L567.527 115.201L568.486 116.16H626.216L626.216 128.773L568.486 128.773L567.527 129.731V172.721L568.486 173.68H620.143L620.143 186.766L551.301 186.766L551.301 129.731L550.342 128.773H542.185V115.687H550.342L551.301 114.728V63.2655H615.897V76.5818ZM617.815 77.1427L624.682 83.9953V55.8421L617.815 62.7041V77.1427ZM623.325 54.4861L616.46 61.3486H550.74L543.874 54.4861H623.325ZM549.383 62.7038V112.414L542.517 105.552V55.8415L549.383 62.7038ZM541.161 106.907L548.027 113.77H541.623L534.757 106.907H541.161ZM533.401 108.263L540.267 115.125V129.334L533.401 136.186V108.263ZM542.517 138.895L549.383 132.043V187.328L542.517 194.19V138.895ZM627.571 164.9L620.705 171.763H570.799L577.655 164.9H627.571ZM633.644 107.38L626.778 114.243H570.799L577.655 107.38H633.644ZM569.445 112.885L576.299 106.025V86.7038L569.446 79.8544L569.445 112.885ZM569.445 170.405L576.299 163.545V138.895L569.445 132.046V170.405ZM622.061 187.327L628.927 194.19V166.256L622.061 173.118V187.327ZM550.74 188.683L543.874 195.546H627.571L620.705 188.683H550.74ZM577.654 137.54L570.802 130.69H626.778L633.642 137.54H577.654ZM628.134 129.334L635.001 136.186V108.736L628.134 115.598V129.334ZM534.759 137.54H541.161L548.025 130.69H541.622L534.759 137.54Z" fill="black"/>
<path fill-rule="evenodd" clip-rule="evenodd" d="M762.365 52.5691L762.084 53.2468L761.406 53.5276V109.246L762.085 109.527L762.365 110.204H792.579L792.86 109.527L793.538 109.246V90.2557H808.715V197.015L809.393 197.295L809.674 197.974H845.463L845.744 197.296L846.422 197.015V90.2557H861.421V109.246L862.099 109.527L862.379 110.204H893.041L893.321 109.527L894 109.246V53.5276L893.322 53.2469L893.041 52.5691H762.365ZM771.546 61.3486L764.68 54.4861H890.726L883.86 61.3486H771.546ZM771.546 101.438L764.683 108.287H790.262L783.398 101.438H771.546ZM784.754 100.082L791.62 106.934V89.6947L784.754 82.8426V100.082ZM837.638 187.839L844.504 194.701V89.6947L837.638 82.8421V187.839ZM870.205 82.8421L863.339 89.6947V106.934L870.205 100.082V82.8421ZM871.56 101.438L864.697 108.287H890.723L883.86 101.438H871.56ZM885.216 100.082L892.082 106.934V55.8415L885.216 62.7041V100.082ZM763.324 55.8415L770.19 62.7041V100.082L763.324 106.934V55.8415ZM871.164 79.5721L872.123 80.5306V99.5208H883.298V63.2655H772.108V99.5208H782.836V80.5306L783.795 79.5721L818.446 79.5721L819.405 80.5306V187.277L835.72 187.277V80.5306L836.678 79.5727L871.164 79.5721ZM817.487 82.8445L810.633 89.6943V194.699L817.487 187.839V82.8445ZM811.987 196.057L818.843 189.194H836.282L843.148 196.057H811.987ZM845.86 88.3388L838.996 81.489H868.846L861.982 88.3388H845.86ZM786.262 81.489L793.126 88.3388H809.249L816.112 81.489H786.262Z" fill="black"/>
</svg>
